<svg width="88" height="36" viewBox="0 0 88 36" fill="none" xmlns="http://www.w3.org/2000/svg">
<g clip-path="url(#clip0_304_3355)">
<path d="M0 0L1.77457 1.78397V3.57205H16.545V1.78397L18.3196 0H0Z" fill="black"/>
<path d="M16.545 7.1441H11.2539V31.5442C11.2538 31.6009 11.2395 31.6568 11.2123 31.7064C11.1852 31.7561 11.146 31.7981 11.0985 31.8284C11.051 31.8588 10.9967 31.8765 10.9407 31.88C10.8846 31.8835 10.8285 31.8726 10.7777 31.8484L7.44426 30.2946C7.3347 30.2424 7.24209 30.1598 7.17723 30.0564C7.11237 29.9531 7.07794 29.8333 7.07796 29.7109V7.1441H1.7868L3.54509 8.91985V31.0427C3.54501 31.4488 3.65991 31.8465 3.87626 32.1888C4.09261 32.5311 4.40137 32.8038 4.76613 32.9747L4.85974 33.0199L10.5009 35.6465C10.9982 35.8798 11.54 36.0004 12.0883 36H12.3772C12.6954 36.0011 13.0107 35.9387 13.3049 35.8165C13.5992 35.6943 13.8667 35.5146 14.092 35.2878C14.3174 35.0609 14.4962 34.7914 14.6182 34.4946C14.7402 34.1979 14.803 33.8797 14.803 33.5584V8.91985L16.545 7.1441Z" fill="black"/>
<path d="M2.56822 0.464478H1.13147L2.23854 1.58254V3.09522H2.38507L2.56822 0.464478Z" fill="black"/>
<path d="M20.436 13.3798V12.8659H23.2933V13.3798H22.1903V16.4215H21.5512V13.3798H20.436Z" fill="black"/>
<path d="M25.3568 16.4215L26.3214 12.8659H27.5832L28.5559 16.4215H27.9169L27.7053 15.657H26.1993L25.9877 16.4215H25.3568ZM26.8139 13.351L26.3296 15.1514H27.5791L27.0988 13.351H26.8139Z" fill="black"/>
<path d="M31.8609 15.1555V16.4215H31.226V12.8659H32.7115C33.5948 12.8659 34.0384 13.2441 34.0384 13.9963C34.056 14.2149 34.0028 14.4333 33.8868 14.6186C33.7708 14.804 33.5983 14.9463 33.3953 15.024L34.0425 16.4215H33.3465L32.7807 15.1555H31.8609ZM33.3872 14.0046C33.3872 13.5935 33.1593 13.3633 32.7115 13.3633H31.8609V14.6581H32.7115C32.8029 14.6658 32.8949 14.6536 32.9812 14.6224C33.0676 14.5912 33.1463 14.5417 33.2122 14.4773C33.3238 14.3462 33.382 14.1773 33.375 14.0046" fill="black"/>
<path d="M36.4683 13.3798V12.8659H39.3214V13.3798H38.2225V16.4215H37.5835V13.3798H36.4683Z" fill="black"/>
<path d="M42.5653 15.287C42.5653 15.7433 42.8339 15.9735 43.3793 15.9735C43.9247 15.9735 44.1933 15.7433 44.1933 15.287V12.8659H44.8323V15.2747C44.8467 15.4454 44.8214 15.6172 44.7585 15.7763C44.6957 15.9354 44.5969 16.0775 44.4701 16.1914C44.1521 16.4055 43.7727 16.5067 43.3915 16.4791C43.0102 16.508 42.6303 16.4067 42.3129 16.1914C42.1866 16.0773 42.0884 15.9351 42.0262 15.7759C41.9641 15.6168 41.9396 15.4451 41.9547 15.2747V12.8659H42.5938L42.5653 15.287Z" fill="black"/>
<path d="M51.7556 15.287C51.7556 15.7433 52.0242 15.9735 52.5696 15.9735C53.115 15.9735 53.3837 15.7433 53.3837 15.287V12.8659H54.0227V15.2747C54.037 15.4454 54.0118 15.6172 53.9489 15.7763C53.886 15.9354 53.7872 16.0775 53.6604 16.1914C53.3418 16.4041 52.9629 16.5052 52.5818 16.4791C52.202 16.5055 51.8243 16.4043 51.5073 16.1914C51.3805 16.0775 51.2818 15.9354 51.2189 15.7763C51.156 15.6172 51.1307 15.4454 51.1451 15.2747V12.8659H51.7841L51.7556 15.287ZM51.6661 11.7684H52.2481V12.3562H51.6539L51.6661 11.7684ZM52.8586 11.7684H53.4691V12.3562H52.8749L52.8586 11.7684Z" fill="black"/>
<path d="M59.1673 16.4215H56.9735V12.8659H57.6084V15.9077H59.1673V16.4215Z" fill="black"/>
<path d="M62.4356 12.8659H61.8007V16.4215H62.4356V12.8659Z" fill="black"/>
<path d="M66.0824 16.4215H65.4475V12.8659H66.0824V14.469L66.6645 14.4279L67.4622 12.8659H68.1867L67.2221 14.654L68.2274 16.4215H67.4907L66.6645 14.9376L66.0824 14.9746V16.4215Z" fill="black"/>
<path d="M73.4819 16.0434C73.3229 16.2027 73.131 16.3244 72.9198 16.3997C72.7087 16.4751 72.4836 16.5022 72.2608 16.4791C72.0378 16.5011 71.8127 16.4731 71.6017 16.397C71.3906 16.321 71.1987 16.1988 71.0398 16.0393C70.7716 15.6336 70.6469 15.1484 70.6857 14.6623C70.6488 14.1692 70.7748 13.6777 71.0439 13.2647C71.1998 13.1 71.3907 12.9733 71.6023 12.8943C71.8138 12.8152 72.0404 12.7858 72.2649 12.8084C72.4894 12.7861 72.7159 12.8157 72.9274 12.8947C73.1389 12.9737 73.3299 13.1002 73.486 13.2647C73.7533 13.6784 73.8778 14.1697 73.84 14.6623C73.8795 15.1498 73.7547 15.6365 73.486 16.0434H73.4819ZM71.5079 15.6693C71.595 15.7801 71.709 15.8663 71.8387 15.9196C71.9685 15.9729 72.1097 15.9915 72.2486 15.9735C72.3898 15.9949 72.534 15.9785 72.6669 15.9258C72.7998 15.8731 72.9166 15.7861 73.0057 15.6734C73.1568 15.3608 73.2228 15.0133 73.197 14.6664C73.2214 14.3112 73.1541 13.9556 73.0016 13.6346C72.9167 13.5215 72.8042 13.4325 72.6751 13.3763C72.546 13.3201 72.4047 13.2986 72.2649 13.314C72.1258 13.2994 71.9853 13.3212 71.857 13.3774C71.7287 13.4335 71.6169 13.5221 71.5323 13.6346C71.3745 13.9511 71.3042 14.3047 71.3288 14.6581C71.3029 15.0068 71.3704 15.3561 71.5242 15.6693" fill="black"/>
<path d="M79.3388 16.0434C79.1803 16.2034 78.9884 16.3256 78.7772 16.401C78.5659 16.4764 78.3406 16.5031 78.1178 16.4791C77.8915 16.5039 77.6625 16.4773 77.4477 16.4012C77.2329 16.3251 77.0377 16.2014 76.8764 16.0393C76.6082 15.6336 76.4834 15.1484 76.5223 14.6622C76.4875 14.1694 76.6133 13.6786 76.8804 13.2647C77.0365 13.1002 77.2275 12.9737 77.439 12.8947C77.6505 12.8156 77.877 12.7861 78.1015 12.8084C78.326 12.7855 78.5527 12.8147 78.7643 12.8938C78.9759 12.9729 79.1668 13.0997 79.3225 13.2647C79.5899 13.6784 79.7144 14.1697 79.6766 14.6622C79.7161 15.1498 79.5913 15.6365 79.3225 16.0434H79.3388ZM77.3444 15.6693C77.4319 15.7808 77.5466 15.8674 77.6771 15.9207C77.8077 15.974 77.9497 15.9922 78.0893 15.9735C78.2272 15.9912 78.3674 15.9729 78.4963 15.9204C78.6253 15.8679 78.7388 15.7828 78.826 15.6734C78.979 15.3615 79.0451 15.0134 79.0173 14.6664C79.0417 14.3112 78.9744 13.9556 78.8219 13.6346C78.739 13.5202 78.6274 13.4302 78.4987 13.3739C78.3699 13.3175 78.2286 13.2969 78.0893 13.314C77.9495 13.2986 77.8082 13.3201 77.6791 13.3763C77.55 13.4325 77.4375 13.5215 77.3526 13.6346C77.1964 13.9515 77.1275 14.3051 77.1531 14.6581C77.1283 15.0063 77.1943 15.3549 77.3444 15.6693Z" fill="black"/>
<path d="M84.7317 16.4215H82.542V12.8659H83.1729V15.9077H84.7317V16.4215Z" fill="black"/>
<path d="M88 12.8659H87.3651V16.4215H88V12.8659Z" fill="black"/>
<path d="M23.9771 23.3519L24.9417 19.7963H26.2034L27.1721 23.3519H26.5331L26.3214 22.5915H24.8236L24.612 23.3519H23.9771ZM25.4342 20.2813L24.9457 22.0818H26.1993L25.7191 20.2813H25.4342Z" fill="black"/>
<path d="M30.4811 23.3396H29.8462V19.7881H30.4811V21.3912L31.0632 21.3501L31.8609 19.7881H32.5854L31.6208 21.5721L32.6261 23.3396H31.8894L31.0632 21.8557L30.4811 21.8927V23.3396Z" fill="black"/>
<path d="M34.9501 23.3519L35.9147 19.7963H37.1764L38.1451 23.3519H37.5061L37.2945 22.5915H35.7926L35.585 23.3519H34.9501ZM36.4072 20.2813L35.9188 22.0818H37.1886L36.7084 20.2813H36.4072Z" fill="black"/>
<path d="M42.1705 23.3519H40.8192V19.7963H42.1705C42.3914 19.7706 42.6152 19.7941 42.8261 19.8651C43.0371 19.9361 43.2301 20.0529 43.3915 20.2074C43.6427 20.5923 43.7601 21.0507 43.7253 21.5104C43.7291 21.767 43.7059 22.0233 43.6561 22.275C43.6177 22.4786 43.5403 22.6727 43.4282 22.8463C43.2084 23.1793 42.7892 23.3478 42.1583 23.3478L42.1705 23.3519ZM43.0659 21.5104C43.089 21.1906 43.0287 20.8703 42.8909 20.5814C42.8023 20.4756 42.6887 20.3942 42.5607 20.3446C42.4326 20.295 42.2942 20.2789 42.1583 20.2978H41.4419V22.8381H42.1583C42.3069 22.8584 42.458 22.8332 42.5923 22.7658C42.7265 22.6984 42.8377 22.5918 42.9113 22.4599C42.9725 22.3297 43.015 22.1913 43.0374 22.0489C43.0589 21.8689 43.0684 21.6876 43.0659 21.5063" fill="black"/>
<path d="M46.5906 23.3396V19.7881H49.0571V20.2896H47.2256V21.2967H48.7152V21.794H47.2256V22.834H49.0571V23.3396H46.5906Z" fill="black"/>
<path d="M51.8615 23.3396V19.7881H54.3279V20.2896H52.4923V21.2967H53.982V21.794H52.4923V22.834H54.3279V23.3396H51.8615Z" fill="black"/>
<path d="M57.1282 23.3396V19.7881H58.2312L59.1063 22.5627L59.9773 19.7881H61.0843V23.3396H60.4453V20.4252H60.3599L59.4359 23.1957H58.7725L57.8486 20.4252H57.7631V23.3396H57.1282Z" fill="black"/>
<path d="M64.7311 19.7881H64.0962V23.3437H64.7311V19.7881Z" fill="black"/>
<path d="M69.9328 23.3396H67.743V19.7881H68.378V22.8258H69.9328V23.3396Z" fill="black"/>
<path d="M73.201 19.7881H72.5661V23.3437H73.201V19.7881Z" fill="black"/>
<path d="M76.213 23.3396V19.7881H77.3241L78.5085 22.834H78.594V19.7881H79.2289V23.3396H78.1463L76.9293 20.2896H76.8479V23.3396H76.213Z" fill="black"/>
<path d="M82.2449 23.3396V19.7881H84.7113V20.2896H82.8757V21.2967H84.3654V21.794H82.8757V22.834H84.7113V23.3396H82.2449Z" fill="black"/>
<path d="M28.6088 27.15C28.1245 27.15 27.8803 27.3062 27.8803 27.6145C27.8746 27.6817 27.888 27.7491 27.919 27.8089C27.9501 27.8686 27.9973 27.9181 28.0553 27.9516C28.2951 28.0662 28.548 28.1504 28.8083 28.2023C29.1018 28.2592 29.3795 28.3799 29.6223 28.5558C29.7076 28.6384 29.7734 28.7392 29.815 28.8509C29.8566 28.9626 29.8728 29.0823 29.8624 29.2012C29.8711 29.3562 29.844 29.5112 29.7832 29.6538C29.7225 29.7965 29.6298 29.923 29.5124 30.0233C29.2332 30.2209 28.8963 30.318 28.5559 30.2987C28.1955 30.2961 27.8359 30.2617 27.4814 30.1959L27.2779 30.1589L27.339 29.6986C27.7291 29.7515 28.1217 29.783 28.5152 29.7931C28.9874 29.7931 29.2234 29.5999 29.2234 29.2217C29.2279 29.1577 29.2155 29.0936 29.1877 29.0358C29.1598 28.9781 29.1174 28.9288 29.0647 28.8929C28.8395 28.7922 28.6009 28.7258 28.3565 28.6956C28.0565 28.642 27.7717 28.5227 27.5221 28.3462C27.4261 28.2573 27.3516 28.1473 27.3043 28.0247C27.257 27.9022 27.2382 27.7702 27.2494 27.6392C27.2395 27.4974 27.2662 27.3555 27.3269 27.2273C27.3875 27.099 27.48 26.9889 27.5954 26.9075C27.8805 26.7296 28.2132 26.6449 28.5478 26.665C28.8968 26.6689 29.2451 26.6991 29.5897 26.7554L29.7892 26.7883L29.7363 27.2528C29.2031 27.1994 28.8286 27.1706 28.6088 27.1706" fill="black"/>
<path d="M34.1035 29.156H33.2895V30.2576H32.6545V26.7061H34.0872C34.9745 26.7061 35.4181 27.1034 35.4181 27.8981C35.4295 28.0685 35.4057 28.2395 35.3483 28.4001C35.2908 28.5607 35.201 28.7075 35.0844 28.8312C34.8064 29.0661 34.4488 29.1826 34.0872 29.156H34.1035ZM33.2732 28.6545H34.0669C34.5227 28.6545 34.7506 28.4037 34.7506 27.8981C34.7679 27.7066 34.7094 27.516 34.5878 27.3679C34.4423 27.2462 34.2552 27.1871 34.0669 27.2035H33.2732V28.6545Z" fill="black"/>
<path d="M40.8152 29.8794C40.6562 30.0387 40.4642 30.1604 40.2531 30.2358C40.042 30.3111 39.8169 30.3382 39.5941 30.3151C39.3714 30.3379 39.1464 30.3107 38.9353 30.2354C38.7242 30.16 38.5322 30.0385 38.3731 29.8794C38.1043 29.4725 37.9795 28.9858 38.019 28.4983C37.9815 28.0065 38.1075 27.5161 38.3772 27.1048C38.5328 26.9399 38.7238 26.813 38.9354 26.734C39.147 26.6549 39.3737 26.6257 39.5982 26.6485C39.8223 26.6261 40.0485 26.6551 40.26 26.7334C40.4714 26.8117 40.6626 26.9372 40.8192 27.1007C41.0861 27.5146 41.2105 28.0058 41.1733 28.4983C41.2149 28.9854 41.0915 29.4724 40.8233 29.8794H40.8152ZM38.8452 29.5054C38.9319 29.6169 39.0457 29.7039 39.1754 29.7579C39.3052 29.8119 39.4467 29.8311 39.586 29.8137C39.7246 29.8321 39.8655 29.8142 39.9953 29.7616C40.125 29.709 40.2392 29.6236 40.3267 29.5136C40.4778 29.1995 40.5438 28.8506 40.518 28.5024C40.5425 28.1472 40.4752 27.7917 40.3227 27.4707C40.2377 27.3575 40.1252 27.2685 39.9961 27.2123C39.867 27.1561 39.7257 27.1347 39.586 27.15C39.4462 27.1347 39.3049 27.1561 39.1758 27.2123C39.0467 27.2685 38.9342 27.3575 38.8493 27.4707C38.6961 27.7901 38.6274 28.1441 38.6499 28.4983C38.6235 28.8456 38.691 29.1937 38.8452 29.5054Z" fill="black"/>
<path d="M44.6492 28.9915V30.2576H44.0142V26.7061H45.4998C46.383 26.7061 46.8226 27.0801 46.8226 27.8365C46.8405 28.0545 46.7879 28.2726 46.6727 28.4579C46.5575 28.6432 46.3859 28.7857 46.1836 28.8641L46.8307 30.2576H46.1429L45.5771 28.9915H44.6492ZM46.1755 27.8406C46.1755 27.4295 45.9475 27.2035 45.4998 27.2035H44.6492V28.4942H45.512C45.6031 28.5026 45.695 28.4912 45.7813 28.4607C45.8677 28.4302 45.9466 28.3814 46.0126 28.3174C46.1245 28.1849 46.1827 28.0146 46.1755 27.8406Z" fill="black"/>
<path d="M51.027 30.2576H49.6717V26.7061H51.027C51.248 26.6801 51.4718 26.7035 51.6828 26.7745C51.8938 26.8455 52.0868 26.9625 52.2481 27.1172C52.4995 27.5019 52.6157 27.9608 52.5777 28.4202C52.5823 28.6766 52.5605 28.9329 52.5126 29.1848C52.4712 29.3869 52.3925 29.5793 52.2806 29.752C52.0649 30.0891 51.6416 30.2535 51.0148 30.2535L51.027 30.2576ZM51.9225 28.4202C51.9455 28.1 51.8837 27.7793 51.7434 27.4912C51.6556 27.3853 51.5429 27.3035 51.4156 27.2532C51.2882 27.2029 51.1504 27.1858 51.0148 27.2035H50.2944V29.7479H51.027C51.1754 29.766 51.3258 29.7398 51.4596 29.6726C51.5934 29.6054 51.7048 29.5001 51.78 29.3697C51.8408 29.2396 51.882 29.1011 51.9021 28.9587C51.9252 28.7801 51.936 28.6002 51.9347 28.4202" fill="black"/>
<path d="M56.0618 26.7061H55.4269V30.2617H56.0618V26.7061Z" fill="black"/>
<path d="M59.7086 30.2617H59.0778V26.7061H59.7086V28.3092L60.2907 28.2681L61.0925 26.7061H61.8169L60.8523 28.4901L61.8576 30.2617H61.121L60.2907 28.7778L59.7086 28.8107V30.2617Z" fill="black"/>
<path d="M66.7092 30.2617H64.5154V26.7061H65.1504V29.7479H66.7092V30.2617Z" fill="black"/>
<path d="M69.8961 29.1067C69.8961 29.567 70.1607 29.7972 70.7102 29.7972C71.2596 29.7972 71.5242 29.567 71.5242 29.1067V26.6897H72.1632V29.1067C72.1776 29.2795 72.1507 29.4533 72.0848 29.6135C72.019 29.7737 71.916 29.9157 71.7847 30.0274C71.4673 30.2427 71.0874 30.3441 70.7061 30.3151C70.3261 30.3435 69.9477 30.2421 69.6316 30.0274C69.5015 29.9148 69.3997 29.7726 69.3346 29.6126C69.2695 29.4525 69.243 29.2791 69.2571 29.1067V26.702H69.8961V29.1067Z" fill="black"/>
<path d="M75.114 26.7061H76.5955C76.9104 26.6841 77.2243 26.7601 77.495 26.9239C77.5972 27.0081 77.6776 27.116 77.7294 27.2384C77.7811 27.3608 77.8027 27.4941 77.7921 27.6268C77.8 27.8014 77.7606 27.9747 77.6782 28.1283C77.5908 28.2587 77.4697 28.3625 77.3282 28.4284C77.5005 28.4798 77.6501 28.5896 77.7517 28.7393C77.8532 28.8891 77.9006 29.0696 77.8858 29.2505C77.8858 29.9205 77.4787 30.2535 76.6444 30.2535H75.114V26.7061ZM76.563 27.2035H75.749V28.2188H76.5915C76.9618 28.2188 77.1491 28.0461 77.1491 27.6967C77.1491 27.3473 76.9537 27.2035 76.567 27.2035H76.563ZM76.5996 28.7079H75.749V29.7602H76.6118C76.7751 29.7719 76.9379 29.7301 77.0758 29.641C77.1326 29.5903 77.1764 29.5263 77.2033 29.4547C77.2303 29.3831 77.2396 29.306 77.2305 29.2299C77.2399 29.1515 77.2283 29.0719 77.1968 28.9996C77.1653 28.9273 77.115 28.8648 77.0514 28.8189C76.9141 28.735 76.756 28.6922 76.5955 28.6956" fill="black"/>
<path d="M81.3535 26.7061H80.7186V30.2617H81.3535V26.7061Z" fill="black"/>
</g>
<defs>
<clipPath id="clip0_304_3355">
<rect width="88" height="36" fill="white"/>
</clipPath>
</defs>
</svg>
