<svg id="mf-logo" data-name="MyFitness" xmlns="http://www.w3.org/2000/svg" width="220" height="61" viewBox="0 0 220 61"><defs><style>.cls-1,.cls-2{fill-rule:evenodd;}.cls-2,.cls-3{fill:#6d6f71;}.cls-4{fill:#ed1c28;}</style></defs><title>mf-logo</title><path class="cls-1" d="M107.89,6.28a3.35,3.35,0,0,1-1.07,2.65A4,4,0,0,1,104,10a3.44,3.44,0,0,1-2.28-.75,2.83,2.83,0,0,1-.91-2,3.22,3.22,0,0,1,1.07-2.6,4,4,0,0,1,2.87-1.06,3.26,3.26,0,0,1,2.23.79A2.56,2.56,0,0,1,107.89,6.28Zm-1.64,7.19-3.83,22.06h-6l3.83-22.06h6Zm20.68,0-0.49,3H120.3l-1.9,10.68a20,20,0,0,0-.42,3.35,2.26,2.26,0,0,0,2.37,2.45,29.37,29.37,0,0,0,3.53,0l0.43,1.92a17.52,17.52,0,0,1-6.4,1.24q-5.94,0-6.12-4.28a36.16,36.16,0,0,1,.59-4.24l1.88-11.12h-3.12l0.49-3h3.22l0.9-5.34,6.19-1.32-1.15,6.66h6.14Zm26.43,4a20.11,20.11,0,0,1-.41,3.66l-2.51,14.43h-6l2.31-13.28a20,20,0,0,0,.39-3q-0.1-2.38-2.92-2.38a7.2,7.2,0,0,0-5.41,2.82,15,15,0,0,0-3.32,7.46L134,35.54h-6l3.78-22.06h4l1.19,5.11q4.57-5.65,10.41-5.65a6.82,6.82,0,0,1,4.3,1.24A4,4,0,0,1,153.36,17.45Zm27.41,0.75q0.15,3.48-4,5.69T165.9,26.05h-1.74l0,0.93q0.23,5.47,5.6,5.47a16.27,16.27,0,0,0,6.68-1.81l1.7,2.69a24.48,24.48,0,0,1-10.58,2.73q-4.45,0-6.84-2a8.51,8.51,0,0,1-3-6.44,12.87,12.87,0,0,1,4.43-10.24,15.6,15.6,0,0,1,11.07-4.41,8.89,8.89,0,0,1,5.33,1.46A4.64,4.64,0,0,1,180.77,18.2Zm-5.51.35a2.31,2.31,0,0,0-.84-1.76,3,3,0,0,0-2.08-.71,7.29,7.29,0,0,0-5,2.21,10.18,10.18,0,0,0-2.71,4.81,15.66,15.66,0,0,0,3.47-.18,11.2,11.2,0,0,0,5.21-1.41Q175.33,20.27,175.26,18.55Zm25.28-3.71-1.13,1.74c-1.52-.78-4.76-1.83-7.33.29a2,2,0,0,0-.8,1.72,4.12,4.12,0,0,0,1.27,2.34l2.08,2a25.88,25.88,0,0,1,3.44,3.84,5.68,5.68,0,0,1,1,2.91,5.14,5.14,0,0,1-2.62,4.59,12.45,12.45,0,0,1-7,1.81,17,17,0,0,1-7.81-1.85l1.63-2.93A12.36,12.36,0,0,0,189,32.67a4.77,4.77,0,0,0,2.83-.75,2.39,2.39,0,0,0,1-2.12,3.11,3.11,0,0,0-.69-1.81,26.9,26.9,0,0,0-2.89-3,29.11,29.11,0,0,1-3.32-3.48,5.11,5.11,0,0,1-.88-2.65,4.76,4.76,0,0,1,2.33-4.19,10.35,10.35,0,0,1,6.12-1.72A14.29,14.29,0,0,1,200.54,14.84ZM98.3,3.39a6.16,6.16,0,0,0-3.57-.86C90.11,3,89.15,13,89.15,13h5.62l-0.58,3.48H88.57l-3.21,19H79.22l3.21-19H78.64L79.22,13H83l0.5-2.67A14.07,14.07,0,0,1,86.74,3a9.14,9.14,0,0,1,6.8-3,8.4,8.4,0,0,1,5.34,1.93"/><path class="cls-2" d="M99.06,48.84L98.38,52.4h0a1.79,1.79,0,0,0-1.79-.94,3.68,3.68,0,0,0-3.48,3.14,2.24,2.24,0,0,0,2.19,2.92,3,3,0,0,0,2.45-1.23h0l-0.16,1.09h1c0-.42.14-1,0.24-1.53l1.34-7H99.06Zm-1.14,6a1.75,1.75,0,0,1-.15.48,2.3,2.3,0,0,1-2,1.35c-1.3,0-1.79-1-1.57-2.13a2.52,2.52,0,0,1,2.41-2.22,1.4,1.4,0,0,1,1.51,1.24,2.07,2.07,0,0,1,0,.47l-0.16.82"/><path class="cls-2" d="M196.68,48.84L196,52.4h0a1.8,1.8,0,0,0-1.79-.94,3.68,3.68,0,0,0-3.48,3.14,2.24,2.24,0,0,0,2.19,2.92,3,3,0,0,0,2.45-1.23h0l-0.16,1.09h1c0-.42.14-1,0.24-1.53l1.34-7h-1.09Zm-1.14,6a1.73,1.73,0,0,1-.15.48,2.3,2.3,0,0,1-2,1.35c-1.3,0-1.79-1-1.57-2.13a2.52,2.52,0,0,1,2.41-2.22,1.4,1.4,0,0,1,1.51,1.24,2.06,2.06,0,0,1,0,.47l-0.16.82"/><path class="cls-2" d="M169.29,57.37c-0.37-.43-0.74-0.89-1.16-1.43A7.37,7.37,0,0,0,170,53h-1a6.56,6.56,0,0,1-1.32,2.36c-0.39-.49-1-1.33-1.68-2.23l0,0c1.47-.61,2.13-1.28,2.3-2.13a1.42,1.42,0,0,0-1.57-1.73,2.58,2.58,0,0,0-2.56,2,2.26,2.26,0,0,0,.38,1.63v0a3.37,3.37,0,0,0-2.14,2.36c-0.23,1.23.57,2.27,2.2,2.27a4.36,4.36,0,0,0,2.74-.94c0.26,0.31.45,0.56,0.66,0.8h1.33Zm-4.38-.67a1.33,1.33,0,0,1-1.46-1.63,2.49,2.49,0,0,1,1.46-1.63c0.8,1.12,1.61,2.16,1.94,2.54a3.08,3.08,0,0,1-1.93.73h0Zm1.57-6.79a0.8,0.8,0,0,1,.82,1c-0.13.7-.8,1.11-1.76,1.56a1.8,1.8,0,0,1-.4-1.43,1.39,1.39,0,0,1,1.32-1.18h0"/><path class="cls-3" d="M68.65,51.6l0.75,5.77h1L72,54.63a18.74,18.74,0,0,0,1-2h0a15,15,0,0,0,.21,2l0.42,2.74h1l3.11-5.77H76.63l-1.48,2.93c-0.33.68-.62,1.3-0.85,1.87h0c0-.57-0.1-1.18-0.19-1.88L73.65,51.6H72.71l-1.61,3c-0.34.64-.66,1.26-0.91,1.84h0c0-.6-0.06-1.19-0.12-1.84l-0.28-3H68.65"/><path class="cls-2" d="M80.54,57.52a3.8,3.8,0,0,0,3.77-3.1,2.35,2.35,0,0,0-2.53-3A3.79,3.79,0,0,0,78,54.55a2.36,2.36,0,0,0,2.52,3h0Zm0.16-.8c-1.08,0-1.83-.83-1.56-2.22a2.57,2.57,0,0,1,2.46-2.24,1.65,1.65,0,0,1,1.58,2.21,2.59,2.59,0,0,1-2.46,2.25h0"/><path class="cls-3" d="M85.4,57.37h1.09l0.58-3a2.37,2.37,0,0,1,.14-0.49,1.87,1.87,0,0,1,2.17-1.35l0.19-1a1.31,1.31,0,0,0-.32,0,2.39,2.39,0,0,0-2,1.35h0l0.19-1.2h-1c-0.07.57-.17,1.16-0.31,1.9L85.4,57.37"/><polyline class="cls-3" points="89.84 57.37 90.93 57.37 92.55 48.84 91.46 48.84 89.84 57.37"/><path class="cls-3" d="M108.18,56.33a4,4,0,0,1-1.56.32,1.7,1.7,0,0,1-1.83-2.16,2.84,2.84,0,0,1,4-1.86l0.41-.82a3.51,3.51,0,0,0-1.61-.35,3.88,3.88,0,0,0-4,3.1,2.35,2.35,0,0,0,2.58,3,5.45,5.45,0,0,0,2-.37l0-.82"/><polyline class="cls-3" points="109.76 57.37 110.85 57.37 112.47 48.84 111.38 48.84 109.76 57.37"/><path class="cls-2" d="M118,53.93c0.21-1.11.06-2.47-1.91-2.47a4.56,4.56,0,0,0-2.21.55L114,52.72a3.66,3.66,0,0,1,1.78-.48A1,1,0,0,1,117,53.58l0,0.11c-2.54,0-4,.79-4.23,2.17a1.39,1.39,0,0,0,1.58,1.66,3.07,3.07,0,0,0,2.15-.91h0l0,0.76h1a8.58,8.58,0,0,1,.17-1.41Zm-1.34,1.45a1,1,0,0,1-.12.33,2.11,2.11,0,0,1-1.78,1,0.79,0.79,0,0,1-.89-1c0.21-1.07,1.61-1.31,3-1.28l-0.18.94"/><path class="cls-3" d="M119,57.09a3.31,3.31,0,0,0,1.7.43,2.42,2.42,0,0,0,2.64-1.74c0.17-.88-0.25-1.37-1.3-1.73-0.76-.26-1.13-0.48-1-1a1.09,1.09,0,0,1,1.18-.81,2.22,2.22,0,0,1,1.26.37l0.41-.79a2.67,2.67,0,0,0-1.47-.38A2.36,2.36,0,0,0,120,53.19c-0.13.7,0.27,1.29,1.35,1.63,0.78,0.25,1.09.5,1,1a1.22,1.22,0,0,1-1.37.87,2.84,2.84,0,0,1-1.47-.44l-0.42.81"/><path class="cls-3" d="M124.42,57.09a3.31,3.31,0,0,0,1.7.43,2.42,2.42,0,0,0,2.64-1.74c0.17-.88-0.25-1.37-1.3-1.73-0.76-.26-1.13-0.48-1-1a1.1,1.1,0,0,1,1.18-.81,2.22,2.22,0,0,1,1.26.37l0.41-.79a2.67,2.67,0,0,0-1.47-.38,2.36,2.36,0,0,0-2.47,1.73c-0.13.7,0.27,1.29,1.35,1.63,0.78,0.25,1.09.5,1,1a1.21,1.21,0,0,1-1.37.87,2.85,2.85,0,0,1-1.47-.44l-0.42.81"/><path class="cls-2" d="M140.87,53.11c0.12-.63.22-1.09,0.33-1.5h-1l-0.22.94h0a1.74,1.74,0,0,0-1.84-1.09,3.69,3.69,0,0,0-3.46,3.08,2.19,2.19,0,0,0,2.18,2.81,2.92,2.92,0,0,0,2.28-1.06h0l-0.13.66a2.36,2.36,0,0,1-2.5,2.11,3.1,3.1,0,0,1-1.8-.52l-0.43.83a3.53,3.53,0,0,0,2,.54,4.07,4.07,0,0,0,2.43-.72,4.17,4.17,0,0,0,1.42-2.69Zm-1.41,1.68a2.06,2.06,0,0,1-.2.57,2.26,2.26,0,0,1-1.9,1.17,1.55,1.55,0,0,1-1.55-2.05,2.49,2.49,0,0,1,2.37-2.19,1.37,1.37,0,0,1,1.47,1.19,2,2,0,0,1,0,.49l-0.16.82"/><path class="cls-3" d="M142.42,51.6l1.34,5.32a0.6,0.6,0,0,1,0,.29,0.58,0.58,0,0,1-.13.24,4.1,4.1,0,0,1-1.23,1.24,3.45,3.45,0,0,1-1,.44L141.44,60a3.65,3.65,0,0,0,1.49-.61c0.83-.54,1.55-1.42,2.85-3.58l2.6-4.24H147.2L145.26,55c-0.23.42-.46,0.86-0.65,1.2h0c0-.33-0.12-0.81-0.2-1.17l-0.77-3.45h-1.21"/><path class="cls-3" d="M148.52,57.37h1.06L150.24,54a1.74,1.74,0,0,1,.19-0.52,2.1,2.1,0,0,1,1.67-1.09c0.84,0,1.22.66,1,1.67l-0.64,3.36h1.06l0.67-3.53a2.21,2.21,0,0,1,.2-0.54,2,2,0,0,1,1.57-1c0.9,0,1.29.64,1.05,1.88l-0.6,3.15h1.06l0.62-3.25c0.42-2.19-.81-2.66-1.57-2.66a2.56,2.56,0,0,0-1.52.47,3.22,3.22,0,0,0-.83.78h0a1.47,1.47,0,0,0-1.53-1.24,2.73,2.73,0,0,0-2.21,1.13h0l0.13-1h-0.94c-0.06.49-.14,1-0.25,1.59l-0.8,4.19"/><path class="cls-3" d="M173,57.09a3.31,3.31,0,0,0,1.7.43,2.42,2.42,0,0,0,2.64-1.74c0.17-.88-0.25-1.37-1.3-1.73-0.76-.26-1.13-0.48-1-1a1.1,1.1,0,0,1,1.18-.81,2.22,2.22,0,0,1,1.26.37l0.41-.79a2.67,2.67,0,0,0-1.47-.38A2.35,2.35,0,0,0,174,53.19c-0.13.7,0.27,1.29,1.35,1.63,0.78,0.25,1.09.5,1,1a1.22,1.22,0,0,1-1.37.87,2.84,2.84,0,0,1-1.47-.44l-0.42.81"/><path class="cls-3" d="M180.31,50.51l-0.21,1.1h-1l-0.16.82h1l-0.59,3.09A2,2,0,0,0,179.5,57a1.28,1.28,0,0,0,1.12.48,3,3,0,0,0,1.06-.17l0.09-.81a2.47,2.47,0,0,1-.7.08c-0.67,0-.77-0.48-0.64-1.18l0.57-3h1.64l0.16-.82h-1.64l0.27-1.39-1.12.3"/><path class="cls-3" d="M189.63,51.6h-1.09L187.89,55a1.8,1.8,0,0,1-.21.55,2.23,2.23,0,0,1-1.77,1c-1.06,0-1.32-.78-1.1-1.93l0.59-3.09H184.3l-0.62,3.28c-0.42,2.22.81,2.64,1.69,2.64a3,3,0,0,0,2.37-1.19h0l-0.14,1h1c0.05-.46.14-1,0.25-1.59l0.8-4.19"/><path class="cls-2" d="M199.35,57.37l1.1-5.77h-1.09l-1.1,5.77h1.09Zm0.74-6.77a0.83,0.83,0,0,0,.82-0.67,0.53,0.53,0,0,0-.55-0.67,0.84,0.84,0,0,0-.82.67,0.53,0.53,0,0,0,.54.67h0"/><path class="cls-2" d="M204,57.52a3.8,3.8,0,0,0,3.77-3.1,2.35,2.35,0,0,0-2.53-3,3.79,3.79,0,0,0-3.77,3.09,2.36,2.36,0,0,0,2.52,3h0Zm0.16-.8c-1.08,0-1.83-.83-1.56-2.22a2.57,2.57,0,0,1,2.46-2.24,1.65,1.65,0,0,1,1.58,2.21,2.59,2.59,0,0,1-2.46,2.25h0"/><path class="cls-3" d="M208.53,57.09a3.31,3.31,0,0,0,1.7.43,2.42,2.42,0,0,0,2.64-1.74c0.17-.88-0.25-1.37-1.3-1.73-0.76-.26-1.13-0.48-1-1a1.09,1.09,0,0,1,1.18-.81,2.22,2.22,0,0,1,1.26.37l0.41-.79a2.66,2.66,0,0,0-1.47-.38,2.35,2.35,0,0,0-2.47,1.73c-0.13.7,0.27,1.29,1.35,1.63,0.78,0.25,1.09.5,1,1a1.22,1.22,0,0,1-1.37.87,2.84,2.84,0,0,1-1.47-.44l-0.42.81"/><path class="cls-4" d="M74.84,15.62c-0.08.2-.6,1.42-0.74,1.68-3.45,6.77-5,10.15-6.82,13.54a85.69,85.69,0,0,1-7.44,11.73C33,79.08,1.65,50.69,0,47.15c0.12-.28.39-0.06,0.66,0.1C17.48,55.92,48.86,64.58,63,30.79c0.12-.32-0.17-0.38-0.47-0.07-2.23,2.12-5.34,5.41-9.36,5.58-7.05.31-7.85-4.49-6.59-8.35-1.79,3.92-8.21,8.9-10.69,9.07-3.78.26-6.44-2.36-5.6-4.89a17,17,0,0,1,1.64-3.77c1.94-3.25,5.41-6.75,5.49-8.74,0-.88-0.2-1-0.89-1-4.13.22-9.77,7.07-15.37,15.63-0.93,1-2.84,1.2-3.53,1.25q-1.5.1-1.47-.51l2.69-5c2.13-3.93,3-6.44,3.13-8.27q0.1-1.93-1.4-1.83c-2.54.17-6.19,3-10.15,8.09C8.42,30.86,7,33.1,5,35.8a5.72,5.72,0,0,1-3.19,1c-0.62,0-.64-0.4-0.6-1.15,0-.27.47-1.88,3-7,4.19-7.92,8-12.26,8.11-11.32a13.77,13.77,0,0,1-1.71,6.34,48.15,48.15,0,0,1,7.1-6.18c3.19-2.24,5.31-2.77,7.32-2.91q2.66-.18,2.51,2.66c-0.11,2-.41,3.54-2.62,7.61,5.35-4.86,10.49-10,16.34-10.11,3.06-.06.84,4.6-1.52,8.48s-6.31,9.32-3,9.55c6.3,0.44,14.38-14.4,15.18-15.29,0.65-1,2.55-1.38,3.57-1.54,1.42-.23,3-0.32,2.24.68,0,0.21-5.68,6.61-7,9.7-1,2.3-.27,5.88,3.31,5.93C66,31.63,65.81,17.67,71,15.89,72.47,15.47,75.14,14.89,74.84,15.62Z"/><path class="cls-1" d="M220,14.84l-1.13,1.74c-1.52-.78-4.76-1.83-7.33.29a2,2,0,0,0-.8,1.72A4.12,4.12,0,0,0,212,20.93l2.08,2a25.88,25.88,0,0,1,3.44,3.84,5.68,5.68,0,0,1,1,2.91,5.14,5.14,0,0,1-2.62,4.59,12.45,12.45,0,0,1-7,1.81,17,17,0,0,1-7.81-1.85l1.63-2.93a12.36,12.36,0,0,0,5.73,1.39,4.77,4.77,0,0,0,2.83-.75,2.39,2.39,0,0,0,1-2.12A3.11,3.11,0,0,0,211.6,28a26.9,26.9,0,0,0-2.89-3,29.11,29.11,0,0,1-3.32-3.48,5.11,5.11,0,0,1-.88-2.65,4.76,4.76,0,0,1,2.33-4.19A10.35,10.35,0,0,1,213,12.95,14.29,14.29,0,0,1,220,14.84Z"/></svg>